<?xml version="1.0" encoding="UTF-8" standalone="no"?>
<!DOCTYPE svg PUBLIC "-//W3C//DTD SVG 1.1//EN" "http://www.w3.org/Graphics/SVG/1.1/DTD/svg11.dtd">
<svg width="100%" height="100%" viewBox="0 0 107 33" version="1.1" xmlns="http://www.w3.org/2000/svg" xmlns:xlink="http://www.w3.org/1999/xlink" xml:space="preserve" xmlns:serif="http://www.serif.com/" style="fill-rule:evenodd;clip-rule:evenodd;stroke-linejoin:round;stroke-miterlimit:2;">
    <g transform="matrix(0.13375,0,0,0.13375,-0.000114249,-36.9543)">
        <path d="M532.277,292.188L532.277,448.755C551.588,449.653 570.85,450.739 590.058,452.021L590.058,485.215C559.695,483.191 529.203,481.646 498.586,480.593L498.586,292.188L532.277,292.188ZM800,292.206L756.13,393.916L799.989,507.1L799.94,507.121C787.164,505.298 774.372,503.578 761.541,501.928L736.911,438.403L712.046,496.031C700.263,494.73 688.464,493.499 676.637,492.345L719.405,393.236L680.237,292.206L716.683,292.206L738.613,348.743L762.998,292.206L800,292.206ZM382.958,478.947L382.957,292.205L477.004,292.205L477.004,325.698L416.648,325.698L416.648,369.106L462.315,369.106L462.315,402.3L416.648,402.3L416.648,478.94L382.958,478.947ZM257.156,325.701L257.155,292.204L361.36,292.204L361.36,325.698L326.102,325.698L326.102,479.856C314.857,480.15 303.624,480.499 292.413,480.922L292.413,325.701L257.156,325.701ZM141.982,490.572L141.982,292.209L235.559,292.209L235.559,325.702L175.667,325.702L175.667,371.07C189.427,370.894 208.991,370.694 221.162,370.724L221.162,403.921C205.926,403.731 188.729,404.13 175.667,404.26L175.667,454.515C195.573,452.95 215.539,451.58 235.559,450.423L235.559,483.621C204.225,485.426 173.031,487.751 141.982,490.572ZM75.892,413.834L75.89,292.204L109.581,292.204L109.581,493.701C97.265,494.968 84.972,496.316 72.701,497.74L33.689,385.663L33.689,502.54C22.437,504.006 11.208,505.533 0,507.129L0,292.206L32.017,292.206L75.892,413.834ZM617.852,487.217L617.852,487.218L617.852,292.206L651.543,292.206L651.543,490C640.327,489.001 629.101,488.078 617.852,487.217Z" style="fill:rgb(203,213,225);fill-rule:nonzero;"/>
    </g>
</svg>
