<?xml version="1.0" encoding="UTF-8" standalone="no"?>
<!DOCTYPE svg PUBLIC "-//W3C//DTD SVG 1.1//EN" "http://www.w3.org/Graphics/SVG/1.1/DTD/svg11.dtd">
<svg width="100%" height="100%" viewBox="0 0 35 33" version="1.1" xmlns="http://www.w3.org/2000/svg" xmlns:xlink="http://www.w3.org/1999/xlink" xml:space="preserve" xmlns:serif="http://www.serif.com/" style="fill-rule:evenodd;clip-rule:evenodd;stroke-linejoin:round;stroke-miterlimit:2;">
    <g transform="matrix(0.04125,0,0,0.04125,1.0002,-7.10543e-15)">
        <path d="M618.324,425.015C619.448,546.082 724.53,586.369 725.695,586.882C724.806,589.722 708.904,644.294 670.332,700.663C636.987,749.399 602.382,797.953 547.867,798.959C494.301,799.946 477.076,767.195 415.834,767.195C354.611,767.195 335.473,797.954 284.766,799.947C232.145,801.94 192.074,747.249 158.454,698.692C89.754,599.37 37.253,418.031 107.749,295.624C142.77,234.837 205.354,196.343 273.284,195.356C324.957,194.371 373.728,230.12 405.318,230.12C436.887,230.12 496.155,187.128 558.462,193.442C584.546,194.528 657.766,203.979 704.78,272.797C700.992,275.146 617.416,323.8 618.324,425.015M517.652,127.732C545.589,93.916 564.392,46.84 559.262,0C518.993,1.618 470.299,26.834 441.415,60.632C415.53,90.561 392.86,138.466 398.976,184.378C443.861,187.851 489.714,161.57 517.652,127.732" style="fill:rgb(203,213,225);fill-rule:nonzero;"/>
    </g>
</svg>
