<?xml version="1.0" encoding="UTF-8" standalone="no"?>
<!DOCTYPE svg PUBLIC "-//W3C//DTD SVG 1.1//EN" "http://www.w3.org/Graphics/SVG/1.1/DTD/svg11.dtd">
<svg width="100%" height="100%" viewBox="0 0 35 33" version="1.1" xmlns="http://www.w3.org/2000/svg" xmlns:xlink="http://www.w3.org/1999/xlink" xml:space="preserve" xmlns:serif="http://www.serif.com/" style="fill-rule:evenodd;clip-rule:evenodd;stroke-linejoin:round;stroke-miterlimit:2;">
    <g transform="matrix(0.0498221,0,0,0.0498221,-2.4911,-4.11388)">
        <path d="M125,487.5C125,372.5 182.5,252.5 250,252.5C287.5,252.5 317.5,275 365,342.5C320,412.5 292.5,455 292.5,455C232.5,550 212.5,570 180,570C147.5,572.5 125,542.5 125,487.5M517.5,445L475,375C465,357.5 452.5,340 442.5,325C480,267.5 510,237.5 547.5,237.5C622.5,237.5 682.5,350 682.5,490C682.5,542.5 665,572.5 630,572.5C595,572.5 582.5,550 517.5,445M410,275C355,202.5 307.5,175 252.5,175C137.5,175 50,327.5 50,487.5C50,587.5 97.5,650 177.5,650C235,650 275,622.5 350,492.5C350,492.5 380,437.5 402.5,400C410,412.5 417.5,425 425,440L460,500C527.5,615 565,652.5 632.5,652.5C710,652.5 752.5,587.5 752.5,485C750,315 660,175 552.5,175C495,175 450,220 410,275" style="fill:rgb(203,213,225);fill-rule:nonzero;"/>
    </g>
</svg>
