<?xml version="1.0" encoding="UTF-8" standalone="no"?>
<!DOCTYPE svg PUBLIC "-//W3C//DTD SVG 1.1//EN" "http://www.w3.org/Graphics/SVG/1.1/DTD/svg11.dtd">
<svg width="100%" height="100%" viewBox="0 0 107 33" version="1.1" xmlns="http://www.w3.org/2000/svg" xmlns:xlink="http://www.w3.org/1999/xlink" xml:space="preserve" xmlns:serif="http://www.serif.com/" style="fill-rule:evenodd;clip-rule:evenodd;stroke-linejoin:round;stroke-miterlimit:2;">
    <g transform="matrix(0.133798,0,0,0.133798,0,-37.0192)">
        <path d="M683.459,389.236L683.459,452.099L703.552,452.099L703.552,410.19L777.036,410.19L777.036,452.099L797.13,452.099L797.13,389.236L683.459,389.236M701.256,368.855L778.759,368.855C789.666,366.846 797.417,357.086 799.713,347.901L680.301,347.901C682.598,357.086 690.635,366.559 701.256,368.855M622.318,452.099C632.365,447.793 637.818,440.33 640.115,431.719L549.695,431.719L549.695,348.188L529.315,348.188L529.315,452.099L622.318,452.099M378.615,368.568L450.377,368.568C461.285,365.411 470.183,357.086 472.479,348.188L358.809,348.188L358.809,409.616L451.812,409.616L451.812,431.145L378.902,431.145C367.42,434.302 357.661,442.052 352.781,452.099L471.905,452.099L471.905,389.236L378.902,389.236L378.615,368.568M201.794,368.855L279.297,368.855C290.205,366.846 298.242,357.086 300.251,347.901L180.553,347.901C182.849,357.086 190.886,366.559 201.794,368.855M201.794,409.903L279.297,409.903C290.205,407.894 298.242,398.134 300.251,388.949L180.553,388.949C182.849,398.134 190.886,407.607 201.794,409.903M201.794,452.099L279.297,452.099C290.205,450.09 298.242,440.33 300.251,431.145L180.553,431.145C182.849,440.33 190.886,450.09 201.794,452.099" style="fill:rgb(203,213,225);fill-rule:nonzero;"/>
    </g>
    <g transform="matrix(0.133798,0,0,0.133798,0,-37.0192)">
        <path d="M0,348.188C2.296,357.374 10.334,366.559 20.954,368.855L53.678,368.855L55.4,369.429L55.4,451.812L75.78,451.812L75.78,369.429L77.503,368.855L110.226,368.855C121.134,365.985 128.884,357.374 131.18,348.188L131.18,347.901L0,348.188" style="fill:rgb(203,213,225);fill-rule:nonzero;"/>
    </g>
</svg>
