<?xml version="1.0" encoding="UTF-8" standalone="no"?>
<!DOCTYPE svg PUBLIC "-//W3C//DTD SVG 1.1//EN" "http://www.w3.org/Graphics/SVG/1.1/DTD/svg11.dtd">
<svg width="100%" height="100%" viewBox="0 0 107 33" version="1.1" xmlns="http://www.w3.org/2000/svg" xmlns:xlink="http://www.w3.org/1999/xlink" xml:space="preserve" xmlns:serif="http://www.serif.com/" style="fill-rule:evenodd;clip-rule:evenodd;stroke-linejoin:round;stroke-miterlimit:2;">
    <g transform="matrix(0.13375,0,0,0.13375,0,-37.0004)">
        <path d="M800,391.87L800,377.801L782.529,377.801L782.529,355.929L781.941,356.11L765.53,361.131L765.207,361.229L765.207,377.802L739.306,377.802L739.306,368.569C739.306,364.271 740.267,360.981 742.161,358.787C744.043,356.619 746.734,355.517 750.166,355.517C752.633,355.517 755.187,356.098 757.758,357.244L758.403,357.532L758.403,342.716L758.1,342.604C755.701,341.742 752.439,341.308 748.396,341.308C743.3,341.308 738.67,342.417 734.632,344.615C730.591,346.816 727.413,349.958 725.186,353.952C722.968,357.942 721.842,362.551 721.842,367.651L721.842,377.801L709.676,377.801L709.676,391.87L721.842,391.87L721.842,451.141L739.306,451.141L739.306,391.87L765.207,391.87L765.207,429.536C765.207,445.049 772.524,452.91 786.955,452.91C789.326,452.91 791.822,452.632 794.37,452.088C796.964,451.529 798.731,450.971 799.771,450.375L800.001,450.239L800.001,436.04L799.29,436.51C798.342,437.141 797.162,437.657 795.778,438.041C794.389,438.432 793.228,438.628 792.328,438.628C788.948,438.628 786.447,437.717 784.895,435.919C783.326,434.105 782.53,430.933 782.53,426.495L782.53,391.87L800,391.87ZM670.675,438.63C664.337,438.63 659.339,436.528 655.817,432.388C652.273,428.227 650.478,422.294 650.478,414.756C650.478,406.98 652.273,400.893 655.818,396.658C659.343,392.452 664.292,390.316 670.533,390.316C676.589,390.316 681.409,392.356 684.862,396.381C688.332,400.426 690.094,406.464 690.094,414.332C690.094,422.296 688.438,428.413 685.172,432.505C681.928,436.567 677.051,438.63 670.675,438.63M671.452,376.034C659.358,376.034 649.753,379.578 642.904,386.567C636.06,393.557 632.589,403.229 632.589,415.319C632.589,426.802 635.977,436.038 642.658,442.767C649.34,449.498 658.433,452.908 669.683,452.908C681.406,452.908 690.82,449.315 697.666,442.229C704.511,435.151 707.979,425.57 707.979,413.763C707.979,402.1 704.725,392.795 698.304,386.111C691.88,379.424 682.844,376.034 671.452,376.034M604.432,376.034C596.205,376.034 589.4,378.139 584.202,382.287C578.972,386.461 576.32,391.935 576.32,398.558C576.32,402.001 576.892,405.06 578.019,407.654C579.153,410.256 580.907,412.548 583.238,414.471C585.551,416.378 589.122,418.377 593.853,420.41C597.831,422.046 600.797,423.431 602.682,424.522C604.524,425.592 605.831,426.667 606.569,427.714C607.287,428.738 607.65,430.14 607.65,431.871C607.65,436.798 603.96,439.196 596.368,439.196C593.552,439.196 590.339,438.608 586.82,437.448C583.327,436.307 580.029,434.634 577.043,432.491L576.318,431.971L576.318,448.785L576.584,448.909C579.055,450.049 582.171,451.011 585.843,451.768C589.508,452.526 592.838,452.911 595.731,452.911C604.658,452.911 611.846,450.797 617.092,446.623C622.37,442.421 625.046,436.818 625.046,429.966C625.046,425.022 623.605,420.783 620.767,417.364C617.948,413.972 613.054,410.859 606.229,408.107C600.792,405.925 597.309,404.113 595.872,402.723C594.486,401.379 593.783,399.479 593.783,397.073C593.783,394.94 594.651,393.232 596.434,391.848C598.23,390.457 600.73,389.75 603.866,389.75C606.776,389.75 609.753,390.21 612.714,391.11C615.672,392.011 618.271,393.218 620.44,394.693L621.154,395.181L621.154,379.231L620.88,379.114C618.879,378.255 616.24,377.521 613.034,376.925C609.843,376.333 606.949,376.034 604.432,376.034M530.791,438.63C524.454,438.63 519.454,436.528 515.933,432.388C512.389,428.227 510.597,422.296 510.597,414.756C510.597,406.98 512.391,400.893 515.937,396.658C519.458,392.452 524.407,390.316 530.651,390.316C536.704,390.316 541.525,392.356 544.979,396.381C548.45,400.426 550.21,406.464 550.21,414.332C550.21,422.296 548.553,428.413 545.288,432.505C542.044,436.567 537.169,438.63 530.791,438.63M531.57,376.034C519.473,376.034 509.867,379.578 503.022,386.567C496.178,393.557 492.705,403.229 492.705,415.319C492.705,426.807 496.095,436.038 502.777,442.767C509.458,449.498 518.551,452.908 529.801,452.908C541.522,452.908 550.938,449.315 557.784,442.229C564.628,435.151 568.097,425.57 568.097,413.763C568.097,402.1 564.842,392.795 558.42,386.111C551.994,379.424 542.96,376.034 531.57,376.034M466.195,390.502L466.195,377.801L448.944,377.801L448.944,451.14L466.195,451.14L466.195,413.624C466.195,407.245 467.641,402.004 470.495,398.046C473.313,394.135 477.068,392.153 481.653,392.153C483.207,392.153 484.951,392.409 486.84,392.916C488.71,393.42 490.064,393.967 490.863,394.543L491.588,395.068L491.588,377.676L491.308,377.556C489.702,376.873 487.429,376.529 484.553,376.529C480.218,376.529 476.338,377.922 473.015,380.664C470.098,383.075 467.99,386.38 466.378,390.502L466.195,390.502ZM418.049,376.034C410.135,376.034 403.075,377.731 397.071,381.077C391.054,384.43 386.401,389.217 383.235,395.305C380.083,401.378 378.482,408.471 378.482,416.382C378.482,423.311 380.034,429.67 383.101,435.274C386.169,440.888 390.512,445.28 396.01,448.326C401.5,451.368 407.845,452.91 414.87,452.91C423.069,452.91 430.069,451.271 435.681,448.039L435.907,447.909L435.907,432.104L435.182,432.633C432.64,434.485 429.799,435.963 426.742,437.028C423.693,438.092 420.913,438.63 418.476,438.63C411.707,438.63 406.272,436.512 402.328,432.336C398.375,428.155 396.37,422.283 396.37,414.895C396.37,407.46 398.461,401.438 402.58,396.994C406.687,392.564 412.131,390.316 418.761,390.316C424.431,390.316 429.956,392.236 435.184,396.028L435.907,396.554L435.907,379.901L435.674,379.769C433.707,378.668 431.023,377.759 427.693,377.069C424.376,376.381 421.132,376.034 418.049,376.034M366.601,377.802L349.349,377.802L349.349,451.14L366.601,451.14L366.601,377.802ZM358.151,346.559C355.312,346.559 352.836,347.526 350.801,349.441C348.758,351.362 347.722,353.781 347.722,356.635C347.722,359.444 348.746,361.818 350.769,363.688C352.78,365.552 355.264,366.497 358.152,366.497C361.04,366.497 363.533,365.552 365.568,363.691C367.615,361.818 368.654,359.445 368.654,356.635C368.654,353.88 367.643,351.487 365.652,349.519C363.662,347.555 361.138,346.559 358.151,346.559M315.108,372.391L315.108,451.14L332.714,451.14L332.714,348.804L308.347,348.804L277.374,424.816L247.317,348.804L221.958,348.804L221.958,451.139L238.503,451.139L238.503,372.383L239.071,372.383L270.81,451.14L283.296,451.14L314.54,372.391L315.108,372.391Z" style="fill:rgb(203,213,225);fill-rule:nonzero;"/>
    </g>
    <g transform="matrix(0.13375,0,0,0.13375,0,-37.0004)">
        <rect x="0" y="314.607" width="81.156" height="81.156" style="fill:rgb(203,213,225);fill-rule:nonzero;"/>
    </g>
    <g transform="matrix(0.13375,0,0,0.13375,0,-37.0004)">
        <rect x="89.607" y="314.607" width="81.154" height="81.156" style="fill:rgb(203,213,225);fill-rule:nonzero;"/>
    </g>
    <g transform="matrix(0.13375,0,0,0.13375,0,-37.0004)">
        <rect x="0" y="404.245" width="81.153" height="81.155" style="fill:rgb(203,213,225);fill-rule:nonzero;"/>
    </g>
    <g transform="matrix(0.13375,0,0,0.13375,0,-37.0004)">
        <rect x="89.607" y="404.245" width="81.154" height="81.155" style="fill:rgb(203,213,225);fill-rule:nonzero;"/>
    </g>
</svg>
