<?xml version="1.0" encoding="UTF-8" standalone="no"?>
<!DOCTYPE svg PUBLIC "-//W3C//DTD SVG 1.1//EN" "http://www.w3.org/Graphics/SVG/1.1/DTD/svg11.dtd">
<svg width="100%" height="100%" viewBox="0 0 107 33" version="1.1" xmlns="http://www.w3.org/2000/svg" xmlns:xlink="http://www.w3.org/1999/xlink" xml:space="preserve" xmlns:serif="http://www.serif.com/" style="fill-rule:evenodd;clip-rule:evenodd;stroke-linejoin:round;stroke-miterlimit:2;">
    <g transform="matrix(0.12594,0,0,0.12594,3.14257,-33.8974)">
        <path d="M775.082,429.175L797.275,443.97C790.072,454.58 772.843,472.782 743.058,472.782C706.071,472.782 678.525,444.165 678.525,407.761C678.525,369.021 706.363,342.741 739.944,342.741C773.719,342.741 790.266,369.605 795.62,384.108L798.54,391.506L711.521,427.52C718.14,440.563 728.458,447.182 743.058,447.182C757.659,447.182 767.782,439.979 775.082,429.175ZM706.849,405.717L764.959,381.578C761.747,373.499 752.208,367.756 740.82,367.756C726.317,367.756 706.168,380.604 706.849,405.717Z" style="fill:rgb(203,213,225);fill-rule:nonzero;"/>
        <rect x="636.573" y="276.455" width="28.033" height="190.389" style="fill:rgb(203,213,225);fill-rule:nonzero;"/>
        <path d="M592.382,347.802L619.442,347.802L619.442,463.437C619.442,511.424 591.117,531.183 557.633,531.183C526.096,531.183 507.116,509.964 500.01,492.736L524.831,482.418C529.308,493.028 540.113,505.584 557.633,505.584C579.144,505.584 592.382,492.249 592.382,467.331L592.382,457.987L591.409,457.987C584.985,465.773 572.72,472.782 557.146,472.782C524.636,472.782 494.851,444.457 494.851,407.956C494.851,371.26 524.636,342.643 557.146,342.643C572.623,342.643 584.985,349.554 591.409,357.146L592.382,357.146L592.382,347.802ZM594.329,407.956C594.329,384.985 579.047,368.243 559.58,368.243C539.918,368.243 523.371,384.985 523.371,407.956C523.371,430.635 539.918,447.085 559.58,447.085C579.047,447.182 594.329,430.635 594.329,407.956Z" style="fill:rgb(203,213,225);fill-rule:nonzero;"/>
        <path d="M340.963,407.469C340.963,444.944 311.762,472.49 275.942,472.49C240.123,472.49 210.922,444.846 210.922,407.469C210.922,369.8 240.123,342.351 275.942,342.351C311.762,342.351 340.963,369.8 340.963,407.469ZM312.541,407.469C312.541,384.108 295.604,368.048 275.942,368.048C256.281,368.048 239.344,384.108 239.344,407.469C239.344,430.635 256.281,446.89 275.942,446.89C295.604,446.89 312.541,430.635 312.541,407.469Z" style="fill:rgb(203,213,225);fill-rule:nonzero;"/>
        <path d="M482.976,407.761C482.976,445.236 453.776,472.782 417.956,472.782C382.136,472.782 352.935,445.236 352.935,407.761C352.935,370.092 382.136,342.741 417.956,342.741C453.776,342.741 482.976,369.995 482.976,407.761ZM454.457,407.761C454.457,384.4 437.52,368.34 417.859,368.34C398.197,368.34 381.26,384.4 381.26,407.761C381.26,430.927 398.197,447.182 417.859,447.182C437.618,447.182 454.457,430.83 454.457,407.761Z" style="fill:rgb(203,213,225);fill-rule:nonzero;"/>
        <path d="M104.047,444.262C63.263,444.262 31.337,411.363 31.337,370.579C31.337,329.795 63.263,296.895 104.047,296.895C126.045,296.895 142.105,305.558 153.98,316.655L173.545,297.09C156.998,281.224 134.902,269.155 104.047,269.155C48.176,269.155 1.163,314.708 1.163,370.579C1.163,426.45 48.176,472.003 104.047,472.003C134.221,472.003 156.998,462.075 174.81,443.581C193.109,425.282 198.755,399.585 198.755,378.755C198.755,372.233 197.976,365.517 197.1,360.553L104.047,360.553L104.047,387.613L170.333,387.613C168.386,404.549 163.033,416.132 155.148,424.016C145.609,433.653 130.522,444.262 104.047,444.262Z" style="fill:rgb(203,213,225);fill-rule:nonzero;"/>
    </g>
</svg>
