<?xml version="1.0" encoding="UTF-8" standalone="no"?>
<!DOCTYPE svg PUBLIC "-//W3C//DTD SVG 1.1//EN" "http://www.w3.org/Graphics/SVG/1.1/DTD/svg11.dtd">
<svg width="100%" height="100%" viewBox="0 0 107 33" version="1.1" xmlns="http://www.w3.org/2000/svg" xmlns:xlink="http://www.w3.org/1999/xlink" xml:space="preserve" xmlns:serif="http://www.serif.com/" style="fill-rule:evenodd;clip-rule:evenodd;stroke-linejoin:round;stroke-miterlimit:2;">
    <g transform="matrix(0.0762869,0,0,0.0762869,45.9705,-30.869)">
        <path d="M794.416,675.894C794.416,684.477 788.114,690.238 780.652,690.238L780.652,690.186C772.979,690.238 766.792,684.477 766.792,675.896C766.792,667.317 772.979,661.572 780.652,661.572C788.116,661.569 794.416,667.315 794.416,675.894ZM800,675.894C800,664.112 790.85,657.274 780.652,657.274C770.384,657.274 761.234,664.112 761.234,675.894C761.234,687.666 770.386,694.531 780.652,694.531C790.85,694.531 800,687.666 800,675.894M777.443,677.469L779.514,677.469L784.315,685.898L789.584,685.898L784.267,677.114C787.014,676.918 789.274,675.611 789.274,671.913C789.274,667.315 786.104,665.84 780.739,665.84L772.974,665.84L772.974,685.898L777.438,685.898L777.443,677.469M777.443,674.073L777.443,669.245L780.547,669.245C782.236,669.245 784.538,669.381 784.538,671.441C784.538,673.681 783.347,674.073 781.355,674.073L777.443,674.073M669.705,573.277L693.828,639.269L644.835,639.269L669.705,573.277ZM643.87,547.581L588.277,688.433L627.531,688.433L636.324,663.543L702.113,663.543L710.435,688.433L753.051,688.433L697.044,547.563L643.87,547.581ZM532.26,688.486L572.087,688.486L572.087,547.538L532.253,547.529L532.26,688.486ZM255.774,547.529L222.546,659.241L190.715,547.538L147.743,547.529L193.203,688.486L250.58,688.486L296.407,547.529L255.774,547.529ZM416.76,578.221L433.879,578.221C458.711,578.221 474.774,589.37 474.774,618.303C474.774,647.241 458.711,658.392 433.879,658.392L416.76,658.392L416.76,578.221ZM377.267,547.529L377.267,688.486L441.832,688.486C476.233,688.486 487.468,682.768 499.614,669.941C508.193,660.934 513.743,641.165 513.743,619.56C513.743,599.741 509.047,582.072 500.859,571.065C486.109,551.38 464.859,547.529 433.142,547.529L377.267,547.529ZM-0,547.333L-0,688.486L40.164,688.486L40.164,581.308L71.284,581.317C81.589,581.317 88.934,583.887 93.896,589.186C100.19,595.889 102.76,606.71 102.76,626.507L102.76,688.486L141.679,688.486L141.679,610.498C141.679,554.838 106.202,547.333 71.489,547.333L0,547.333ZM313.169,547.529L313.185,688.486L352.994,688.486L352.994,547.529L313.169,547.529Z" style="fill:rgb(203,213,225);fill-rule:nonzero;"/>
    </g>
    <g transform="matrix(0.0762869,0,0,0.0762869,-3.74953,-5.84628)">
        <path d="M107.035,266.868C107.035,266.868 158.259,191.291 260.536,183.472L260.536,156.053C147.251,165.151 49.15,261.098 49.15,261.098C49.15,261.098 104.713,421.717 260.536,436.426L260.536,407.282C146.186,392.896 107.035,266.868 107.035,266.868ZM260.536,349.32L260.536,376.013C174.113,360.603 150.123,270.768 150.123,270.768C150.123,270.768 191.619,224.799 260.536,217.345L260.536,246.633C260.484,246.633 260.447,246.617 260.404,246.617C224.233,242.276 195.976,276.067 195.976,276.067C195.976,276.067 211.814,332.949 260.536,349.32M260.536,105.48L260.536,156.053C263.862,155.798 267.187,155.582 270.531,155.468C399.324,151.127 483.241,261.098 483.241,261.098C483.241,261.098 386.859,378.296 286.446,378.296C277.243,378.296 268.628,377.443 260.536,376.009L260.536,407.282C267.693,408.201 274.901,408.667 282.117,408.675C375.558,408.675 443.132,360.954 508.564,304.474C519.413,313.162 563.826,334.299 572.956,343.55C510.743,395.639 365.75,437.626 283.549,437.626C275.625,437.626 268.016,437.146 260.536,436.424L260.536,480.369L615.699,480.369L615.699,105.48L260.536,105.48ZM260.536,217.343L260.536,183.475C263.827,183.245 267.144,183.067 270.531,182.96C363.146,180.051 423.907,262.548 423.907,262.548C423.907,262.548 358.279,353.693 287.912,353.693C277.785,353.693 268.705,352.065 260.534,349.318L260.534,246.631C296.589,250.987 303.846,266.914 325.522,303.049L373.735,262.398C373.735,262.398 338.542,216.243 279.217,216.243C272.766,216.241 266.595,216.694 260.536,217.343" style="fill:rgb(203,213,225);fill-rule:nonzero;"/>
    </g>
</svg>
